<svg xmlns="http://www.w3.org/2000/svg" version="1.1" viewBox="-5.0 -10.0 110.0 135.0">
 <path d="m65 17-9.4609-9.5391v7.5391c-0.015624 0.51953 0.17969 1.0273 0.53906 1.4023 0.36328 0.37891 0.85938 0.59375 1.3828 0.59766zm15.27 54.238-2-3.4102c-0.98438 0.69531-2.0273 1.3008-3.1211 1.8125l2 3.4102c0.89453-0.82812 1.9609-1.4453 3.1211-1.8125zm2 2.0781v0.003906c-1.8008 0.19922-3.4219 1.1797-4.4414 2.6797l8.4883 16.559c1.3516 2.6289 5.6211 2.2305 6.4805-1h0.003906c0.24219-0.86719 0.10547-1.7969-0.37109-2.5586l-10.109-15.68zm-44.199-26.102h5.5508v-32.336h-5.5v32.34zm-8 0h5.5508v-10.844h-5.5195v10.848zm-8 0h5.5508v-24l-5.543 0.003906v24zm29.602-9.8984v-14l-5.5312 0.003906v23.898h0.62109c0.69922-3.6875 2.4023-7.1133 4.918-9.8984zm8-5.4219v-3l-5.5234 0.003907v6.1016c1.6797-1.3125 3.5547-2.3594 5.5508-3.1016zm1.707 2.1055c3.1914-1.0039 6.6016-1.0781 9.832-0.21094 5.3477 1.4258 9.7266 5.2578 11.852 10.367 2.125 5.1055 1.7539 10.914-1.0078 15.711-2.7578 4.7969-7.5938 8.0352-13.078 8.7656-5.4844 0.73047-10.996-1.1289-14.918-5.0352-3.918-3.9062-5.7969-9.4141-5.082-14.902 0.71094-5.4883 3.9375-10.332 8.7227-13.105 1.1172-0.65625 2.3047-1.1914 3.5391-1.5898zm-48.551-4.9219c-0.67969 0.007813-1.2344 0.55859-1.2383 1.2422v18.148c0.003906 0.68359 0.55859 1.2344 1.2383 1.2422h33.602c-0.32813 4.7227 0.99219 9.418 3.7383 13.277 2.75 3.8594 6.75 6.6445 11.32 7.8828 1.6992 0.44922 3.4453 0.67969 5.2031 0.67969v10.699c0 1.0625-0.85938 1.9297-1.9219 1.9414h-55.77c-1.0547-0.039062-1.8984-0.88672-1.9297-1.9414v-74.609c0.03125-1.0547 0.875-1.9023 1.9297-1.9414h44.07v9.3008c-0.007812 2.4336 1.957 4.4141 4.3906 4.4297h9.2305v11.23c-1.5234 0-3.0391 0.17188-4.5195 0.51172v-3.5c0-0.68359-0.55078-1.2383-1.2305-1.2422h-6.793v-4.3398c0-0.67969-0.54688-1.2344-1.2266-1.2383h-6.7812v-7.2227c0-0.68359-0.55469-1.2422-1.2422-1.25h-8c-0.32813 0.003906-0.64063 0.13672-0.87109 0.37109-0.23047 0.23438-0.35938 0.55078-0.35547 0.87891v20.25h-5.5703v-11.879c0-0.67969-0.55078-1.2344-1.2305-1.2383h-8c-0.33203-0.007813-0.65234 0.12109-0.89062 0.35547-0.23828 0.23047-0.37109 0.55078-0.37109 0.88281v7.1094zm6.7812 2.4883-5.5508 0.003906v15.648h5.5508zm-6.9492 27.434h29.52c0.64453-0.058594 1.1367-0.59766 1.1367-1.2461 0-0.64453-0.49219-1.1875-1.1367-1.2422h-29.52c-0.64453 0.054687-1.1367 0.59766-1.1367 1.2422 0 0.64844 0.49219 1.1875 1.1367 1.2461zm0 9.2383h34.121c0.64453-0.054687 1.1367-0.59766 1.1367-1.2422 0-0.64844-0.49219-1.1875-1.1367-1.2461h-34.121c-0.64453 0.058594-1.1367 0.59766-1.1367 1.2461 0 0.64453 0.49219 1.1875 1.1367 1.2422zm13.469 9.25h35c0.69141 0 1.25-0.55859 1.25-1.25 0-0.6875-0.55859-1.25-1.25-1.25h-35c-0.6875 0-1.25 0.5625-1.25 1.25 0 0.69141 0.5625 1.25 1.25 1.25zm-13.469 0h6.4102c0.69141 0 1.25-0.55859 1.25-1.25 0-0.6875-0.55859-1.25-1.25-1.25h-6.4102c-0.69141 0-1.25 0.5625-1.25 1.25 0 0.69141 0.55859 1.25 1.25 1.25zm39.809-23c-0.64453-0.054687-1.1367-0.59766-1.1367-1.2422 0-0.64844 0.49219-1.1875 1.1367-1.2461h2.7188l2.4414-2.7305c0.30469-0.34375 0.77734-0.49219 1.2227-0.37891 0.44531 0.10938 0.79297 0.46094 0.89844 0.91016l0.60156 2 1.8516-6.0898h-0.003906c0.15625-0.52344 0.63672-0.88281 1.1797-0.88281 0.54688 0 1.0273 0.35938 1.1797 0.88281l2.1602 7.1094 2.2109-8.1016c0.14844-0.52344 0.62109-0.88672 1.168-0.89844 0.54297-0.011718 1.0312 0.33203 1.2031 0.85156l2.7891 7.3281h6.7617c0.68359 0 1.2383 0.55469 1.2383 1.2383 0 0.6875-0.55469 1.2422-1.2383 1.2422h-7.6016c-0.51172 0-0.97266-0.31641-1.1484-0.80078l-1.7812-4.6797-2.3203 8.5117c-0.13281 0.53516-0.60547 0.91797-1.1602 0.93359-0.55078 0.019532-1.0469-0.33594-1.2109-0.86719l-2.2305-7.3281-1.8516 6.0781h0.003906c-0.15625 0.52344-0.63672 0.88281-1.1797 0.88281-0.54688 0-1.0273-0.35938-1.1797-0.88281l-1.1914-3.8086-1.3008 1.4805c-0.24219 0.30469-0.61328 0.47266-1 0.46094z" fill-rule="evenodd"/>
<text x="0.0" y="117.5" font-size="5.0" font-weight="bold" font-family="Arbeit Regular, Helvetica, Arial-Unicode, Arial, Sans-serif" fill="#000000">Created by RAGIL HERU FITRIYAN</text><text x="0.0" y="122.5" font-size="5.0" font-weight="bold" font-family="Arbeit Regular, Helvetica, Arial-Unicode, Arial, Sans-serif" fill="#000000">from Noun Project</text></svg>