<svg xmlns="http://www.w3.org/2000/svg" version="1.1" viewBox="-5.0 -10.0 110.0 135.0">
 <path d="m77.988 52.703c-2.7383-2.7383-6.5234-4.4336-10.703-4.4336-4.1797 0-7.9648 1.6953-10.703 4.4336s-4.4336 6.5234-4.4336 10.703 1.6953 7.9648 4.4336 10.703 6.5234 4.4336 10.703 4.4336c4.1797 0 7.9648-1.6953 10.703-4.4336s4.4336-6.5234 4.4336-10.703-1.6953-7.9648-4.4336-10.703zm-10.703-6.8945c4.8594 0 9.2617 1.9688 12.445 5.1562 3.1836 3.1836 5.1562 7.5859 5.1562 12.445s-1.9688 9.2617-5.1562 12.445c-3.1836 3.1836-7.5859 5.1562-12.445 5.1562s-9.2617-1.9688-12.445-5.1562c-3.1836-3.1836-5.1562-7.5859-5.1562-12.445s1.9688-9.2617 5.1562-12.445c3.1836-3.1836 7.5859-5.1562 12.445-5.1562zm1.5977 14.129c0.18359 0.44531 0.59766 0.72656 1.0469 0.76172v0.003906l4.1992 0.30859-3.2188 2.7227c-0.38281 0.32422-0.51953 0.83594-0.38281 1.2891l0.98828 4.0391-3.5898-2.2227c-0.41406-0.25781-0.92578-0.23438-1.3086 0.011718l-3.5664 2.2109 1.0078-4.1016c0.11328-0.46484-0.058594-0.93359-0.39844-1.2266l-3.2188-2.7227 4.1992-0.30859c0.51953-0.035156 0.94141-0.39062 1.0859-0.85938l1.5586-3.8125 1.5977 3.9102zm-0.46484-7.6094 2.4414 5.9766 6.4414 0.47656c0.67578 0.046875 1.1875 0.63672 1.1406 1.3125-0.023437 0.35938-0.20312 0.67578-0.46875 0.88281l-4.8984 4.1445 1.5391 6.2773c0.16016 0.65625-0.24609 1.3203-0.90234 1.4805-0.34375 0.082032-0.6875 0.011719-0.96484-0.16797l-5.4648-3.3828-5.4961 3.4023c-0.57422 0.35547-1.332 0.17578-1.6875-0.39844-0.17969-0.28906-0.22266-0.625-0.14844-0.93359l1.5391-6.2773-4.9336-4.1758c-0.51953-0.4375-0.58203-1.2148-0.14453-1.7305 0.22266-0.26172 0.53125-0.41016 0.85156-0.43359l6.4414-0.47656 2.4414-5.9766c0.25391-0.625 0.96875-0.92969 1.5977-0.67188 0.31641 0.12891 0.55469 0.37891 0.67187 0.67188zm-55.727-45.352c-0.77734-0.52734-1.7539-0.76172-2.75-0.58594-0.039062 0.011719-0.085937 0.019531-0.12891 0.023437-0.98828 0.20703-1.8047 0.78906-2.332 1.5703-0.52734 0.77734-0.76172 1.7539-0.58594 2.75 0.011719 0.039063 0.019531 0.085937 0.023438 0.12891 0.20703 0.98828 0.78906 1.8047 1.5703 2.332 0.77734 0.52734 1.7539 0.76172 2.75 0.58594 0.039063-0.011719 0.085938-0.019531 0.12891-0.023438 0.98828-0.20703 1.8047-0.78906 2.332-1.5703 0.52734-0.77734 0.76172-1.7539 0.58594-2.75-0.011718-0.042969-0.019531-0.085938-0.023437-0.12891-0.20703-0.98828-0.78906-1.8047-1.5703-2.332zm0.59375 8.707c-0.46875 0.22656-0.97656 0.39453-1.5117 0.5h-0.003907c-0.53125 0.10547-1.0625 0.13672-1.5781 0.10156l15.027 77.383 3.0898-0.60156zm59.203 21.598c-0.50781-0.14844-1.0859-0.50391-1.6719-0.86719-1.0859-0.66797-2.1836-1.3438-3.5312-1.3438-1.3516 0-2.4453 0.67578-3.5312 1.3438-0.64844 0.39844-1.2891 0.79688-1.832 0.90625-0.55469 0.11328-1.3086-0.007812-2.0586-0.12891-1.2148-0.19531-2.418-0.39062-3.6016 0.10938-1.1953 0.50391-1.8906 1.5156-2.5859 2.5195-0.41797 0.60547-0.83594 1.207-1.2773 1.5078-0.44922 0.30078-1.1641 0.46094-1.8789 0.62109-1.1875 0.26562-2.3711 0.52734-3.2695 1.4258s-1.1602 2.082-1.4258 3.2695c-0.12891 0.57812-0.25781 1.1602-0.46094 1.5977-4.1484-0.88281-8.0977-0.85938-11.941 0.078124-3.5273 0.85938-6.9531 2.4805-10.352 4.8633l-6.7578-34.789c3.7578-2.7891 7.6211-4.5664 11.598-5.3398 4.1758-0.8125 8.4922-0.51172 12.953 0.89453 4.8555 1.5312 9.5703 1.8516 14.152 0.96484 4.0156-0.78125 7.9062-2.4844 11.68-5.1211l5.793 27.496zm1.6914 2.4688c0.30469-0.039062 0.60937-0.085938 0.91406-0.13672 0.86719-0.14062 1.7305-0.28125 2.2656-0.054687 0.53125 0.22656 1.0273 0.94141 1.5195 1.6523 0.55469 0.80078 1.1055 1.5977 1.9219 2.1484 0.81641 0.55078 1.7695 0.76562 2.7266 0.97656 0.82812 0.18359 1.6562 0.36719 2.0586 0.76953 0.40234 0.40234 0.58594 1.2305 0.76953 2.0586 0.21094 0.95313 0.42578 1.9062 0.97656 2.7266 0.55078 0.81641 1.3477 1.3672 2.1484 1.9219 0.71094 0.49219 1.4297 0.98438 1.6523 1.5195 0.22656 0.53516 0.085938 1.3984-0.054687 2.2656-0.15625 0.96875-0.3125 1.9414-0.10938 2.9336 0.19922 0.96875 0.71094 1.7969 1.2227 2.6328 0.48047 0.78125 0.96875 1.5742 0.96875 2.2422 0 0.67188-0.48828 1.4609-0.96875 2.2422-0.51562 0.83594-1.0234 1.6641-1.2227 2.6328-0.20312 0.99219-0.046875 1.9648 0.10938 2.9336 0.14062 0.86719 0.28125 1.7305 0.054687 2.2656-0.22656 0.53125-0.94141 1.0273-1.6523 1.5195-0.80078 0.55469-1.5977 1.1055-2.1484 1.9219s-0.76562 1.7695-0.97656 2.7266c-0.18359 0.82812-0.36719 1.6562-0.76953 2.0586-0.40234 0.40234-1.2305 0.58594-2.0586 0.76953-0.95312 0.21094-1.9062 0.42578-2.7266 0.97656-0.81641 0.55078-1.3672 1.3477-1.9219 2.1484-0.49219 0.71094-0.98438 1.4297-1.5195 1.6523-0.53516 0.22656-1.3984 0.085938-2.2656-0.054687-0.96875-0.15625-1.9414-0.3125-2.9336-0.10938-0.96875 0.19922-1.7969 0.71094-2.6328 1.2227-0.78125 0.48047-1.5742 0.96875-2.2422 0.96875-0.67188 0-1.4609-0.48828-2.2422-0.96875-0.83594-0.51562-1.6641-1.0234-2.6328-1.2227-0.99219-0.20312-1.9648-0.046875-2.9336 0.10938-0.86719 0.14062-1.7305 0.28125-2.2656 0.054687-0.53125-0.22656-1.0273-0.94141-1.5195-1.6523-0.55469-0.80078-1.1055-1.5977-1.9219-2.1484-0.81641-0.55078-1.7695-0.76562-2.7266-0.97656-0.82812-0.18359-1.6562-0.36719-2.0586-0.76953-0.40234-0.40234-0.58594-1.2305-0.76953-2.0586-0.21094-0.95313-0.42578-1.9062-0.97656-2.7266-0.55078-0.81641-1.3477-1.3672-2.1484-1.9219-0.71094-0.49219-1.4297-0.98438-1.6523-1.5195-0.22656-0.53516-0.085938-1.3984 0.054688-2.2656 0.15625-0.96875 0.3125-1.9414 0.10937-2.9336-0.19922-0.96875-0.71094-1.7969-1.2227-2.6328-0.48047-0.78125-0.96875-1.5742-0.96875-2.2422 0-0.67188 0.48828-1.4609 0.96875-2.2422 0.51562-0.83594 1.0234-1.6641 1.2227-2.6328 0.20313-0.99219 0.046876-1.9648-0.10937-2.9336-0.14063-0.86719-0.28125-1.7305-0.054688-2.2656 0.22656-0.53125 0.94141-1.0273 1.6523-1.5195 0.80078-0.55469 1.5977-1.1055 2.1484-1.9219s0.76562-1.7695 0.97656-2.7266c0.18359-0.82812 0.36719-1.6562 0.76953-2.0586 0.40234-0.40234 1.2305-0.58594 2.0586-0.76953 0.95312-0.21094 1.9062-0.42578 2.7266-0.97656 0.81641-0.55078 1.3672-1.3477 1.9219-2.1484 0.49219-0.71094 0.98438-1.4297 1.5195-1.6523 0.53516-0.22656 1.3984-0.085938 2.2656 0.054687 0.96875 0.15625 1.9414 0.3125 2.9336 0.10938 0.96875-0.19922 1.7969-0.71094 2.6328-1.2227 0.78125-0.48047 1.5742-0.96875 2.2422-0.96875 0.67188 0 1.4609 0.48828 2.2422 0.96875 0.83594 0.51562 1.6641 1.0234 2.6328 1.2227 0.66406 0.13672 1.3203 0.10938 1.9688 0.03125 0.015625-0.003906 0.03125-0.003906 0.050782-0.007812z" fill-rule="evenodd"/>
<text x="0.0" y="117.5" font-size="5.0" font-weight="bold" font-family="Arbeit Regular, Helvetica, Arial-Unicode, Arial, Sans-serif" fill="#000000">Created by Orange Cat</text><text x="0.0" y="122.5" font-size="5.0" font-weight="bold" font-family="Arbeit Regular, Helvetica, Arial-Unicode, Arial, Sans-serif" fill="#000000">from Noun Project</text></svg>