<svg xmlns="http://www.w3.org/2000/svg" xmlns:xlink="http://www.w3.org/1999/xlink" version="1.1" x="0px" y="0px" viewBox="0 0 128 160" style="enable-background:new 0 0 128 128;" xml:space="preserve"><path d="M126,124h-2V21.9003906c0-2.1973267-1.546936-4.8779297-3.453125-5.9863281c0,0-14.3925781-7.2109985-14.421875-7.2255859  c-2.031189-1.0175781-4.6854858-0.9140625-6.4385376,0.6395874l-6.7020874,5.9463501  C91.335022,16.7362671,90,19.703064,90,21.9003906v44.2412109c1.5139771-0.7067871,3.3604736-1.1083984,5.2820435-1.1083984  c1.291687,0,3.2127075,0.1766357,5.027832,1.0174561L105,68.2212524v-7.6372681l15,7.8934937v7.4794922l-4.9404297-2.6005859  C115.6376953,74.3378906,116,78.3710938,116,78.3710938l4,2.1044922v7.4794922l-4-2.1044922v4.5184937l4,2.1055298v7.4794922  l-4-2.1055298v4.5195923l4,2.1054077v7.4794922l-4-2.1054077v4.5195313l4,2.1044922V124h-8V79.8739624  c0-2.2080078-1.625-4.7509766-3.6299438-5.6796875L98.6298828,69.6875c-0.9365234-0.4335938-2.1358032-0.647522-3.3477173-0.647522  c-1.3827515,0-2.7821655,0.2783813-3.8241577,0.8251953l-7.9160156,4.1514282C81.5858765,75.0429688,80,77.6659546,80,79.8739624  V124h-4V13.977478c0-2.2089233-1.5458984-4.9042969-3.453125-6.0194702c0,0-12.4208984-7.2637329-12.421875-7.2646484  c-1.9434204-1.1367798-4.7568359-0.8447876-6.4385376,0.6435547L46.984375,7.3153687  C45.3358765,8.7851563,44,11.7685547,44,13.977478V124h-4V32.8231812c0-2.2235718-1.5947266-4.8475952-3.5615234-5.8602905  c0,0-8.5048828-4.3809204-8.5058594-4.3809204c-1.578125-0.8134155-3.6846313-0.7871094-5.2754517-0.0106812  c-0.4325562,0.2108765-0.9423828,0.5-1.2841797,0.8417969l-14.375,12.7802734C5.3417969,37.6669922,4,40.6621094,4,42.8856812V124H2  c-1.1044922,0-2,0.8955078-2,2s0.8955078,2,2,2h124c1.1044922,0,2-0.8955078,2-2S127.1044922,124,126,124z M23,124h-6.6318359  L23,118.3895874V124z M23,113.1513672l-12.7919922,10.8222046L10.2304688,124H8v-5.4248047l15-12.7490234V113.1513672z   M23,100.5791016L8,113.328064v-7.7509766L23,92.828064V100.5791016z M23,87.5810547L8,100.3291016V92.578064l15-12.7489624  V87.5810547z M23,74.5819702L8,87.3310547v-7.7519531l15-12.7480469V74.5819702z M23,61.5830078L8,74.3319702v-7.7509155  l15-12.7490845V61.5830078z M23,48.5849609L8,61.3330078v-7.7510376l15-12.7479858V48.5849609z M23,35.5858765L8,48.3349609  v-5.4492798c0-1.0839233,0.8515625-2.9873047,1.656311-3.703125L23,27.3183594V35.5858765z M72,124H60v-10.078125l12,6.7490234V124z   M72,116.0810547l-12-6.7490845v-7.4090576l12,6.7489624V116.0810547z M72,104.0830078l-12-6.75v-7.4092407l12,6.75V104.0830078z   M72,92.0839844l-12-6.7490234v-7.4091797l12,6.7490234V92.0839844z M72,80.0849609l-12-6.7490845v-7.4091187l12,6.7490234  V80.0849609z M72,68.0869141l-12-6.75v-7.4092407l12,6.75V68.0869141z M72,56.0878906l-12-6.7490234v-7.4091797l12,6.7490234  V56.0878906z M72,44.0888672l-12-6.7490845v-7.4091187l12,6.7490234V44.0888672z M72,32.0907593l-12-6.7489624v-7.4102173l12,6.75  V32.0907593z M72,20.0917969l-12-6.7490234V5.2548828l10.5272827,6.156189C71.2020874,11.8056641,72,13.1962891,72,13.977478  V20.0917969z M93,124h-9V79.8739624c0-0.7245483,0.7587891-1.9784546,1.4003906-2.3153687L93,73.5722656V124z M120,63.9580078  l-15-7.8945313v-7.4785156l15,7.8934937V63.9580078z M120,51.9599609l-15-7.8954468v-7.4786377l15,7.8936157V51.9599609z   M120,39.9608765l-15-7.8944702v-7.4785156l15,7.8934937V39.9608765z M120,27.9619141l-15-7.8945313v-7.468811l13.6044922,6.8154907  C119.2597656,19.8534546,120,21.1582031,120,21.9003906V27.9619141z"/><text x="0" y="143" fill="#000000" font-size="5px" font-weight="bold" font-family="'Helvetica Neue', Helvetica, Arial-Unicode, Arial, Sans-serif">Created by WEBTECHOPS LLP</text><text x="0" y="148" fill="#000000" font-size="5px" font-weight="bold" font-family="'Helvetica Neue', Helvetica, Arial-Unicode, Arial, Sans-serif">from the Noun Project</text></svg>