<svg xmlns="http://www.w3.org/2000/svg" xmlns:xlink="http://www.w3.org/1999/xlink" version="1.1" x="0px" y="0px" viewBox="0 0 48 60" enable-background="new 0 0 48 48" xml:space="preserve"><path d="M25.74366,17.52588h-3.48633c-4.64648,0-8.42676,3.78027-8.42676,8.42676v11.62402  c0,4.64648,3.78027,8.42676,8.42676,8.42676h3.48633c4.64648,0,8.42676-3.78027,8.42676-8.42676V25.95264  C34.17042,21.30615,30.39014,17.52588,25.74366,17.52588z M24.0005,40.09425c-1.46582,0-2.65918-1.19336-2.65918-2.65918  s1.19336-2.65918,2.65918-2.65918s2.6582,1.19336,2.6582,2.65918S25.46632,40.09425,24.0005,40.09425z M24.0005,31.43506  c-2.68457,0-4.86816-2.18359-4.86816-4.86719c0-2.68457,2.18359-4.86816,4.86816-4.86816c2.68359,0,4.86719,2.18359,4.86719,4.86816  C28.86768,29.25147,26.68409,31.43506,24.0005,31.43506z"/><path d="M22.94972,12.24463c-1.16797,0.35156-2.0752,1.25879-2.42676,2.42676c-0.08008,0.26465,0.06934,0.54395,0.33398,0.62305  c0.26465,0.08105,0.54297-0.07031,0.62305-0.33398c0.25488-0.8457,0.91309-1.50391,1.75879-1.75879  c0.67188-0.2041,1.38477-0.13184,2.00488,0.19922c0.62012,0.33301,1.07324,0.88672,1.27734,1.55957  c0.06543,0.21582,0.26367,0.35547,0.47852,0.35547c0.04785,0,0.09668-0.00684,0.14453-0.02148  c0.26465-0.08008,0.41406-0.35938,0.33398-0.62305C26.89796,12.75245,24.86573,11.66553,22.94972,12.24463z"/><path d="M31.34815,13.50148c0.06543,0.21582,0.26367,0.35547,0.47852,0.35547c0.04785,0,0.09668-0.00684,0.14453-0.02148  c0.26465-0.08008,0.41406-0.3584,0.33398-0.62305c-1.38379-4.58008-6.23926-7.18164-10.81446-5.7959  c-2.78711,0.8418-4.9541,3.00879-5.7959,5.7959c-0.08008,0.26465,0.06933,0.54297,0.33398,0.62305  c0.2627,0.08203,0.54395-0.07031,0.62305-0.33398c0.74512-2.46582,2.66211-4.38281,5.12793-5.12793  C25.83155,7.14893,30.12452,9.45069,31.34815,13.50148z"/><path d="M30.48097,3.63037c-3.23145-1.73144-6.94141-2.10058-10.44825-1.04101c-4.40723,1.33203-7.83301,4.75781-9.16504,9.16504  c-0.08008,0.26465,0.06934,0.54297,0.33398,0.62305c0.04785,0.01465,0.09668,0.02148,0.14453,0.02148  c0.21484,0,0.41309-0.13965,0.47852-0.35547c1.23535-4.08594,4.41113-7.26172,8.49707-8.49707  c3.25488-0.98145,6.69238-0.63867,9.68652,0.96582s5.18457,4.2793,6.16699,7.53125c0.08008,0.26367,0.36133,0.41504,0.62305,0.33398  c0.26465-0.08008,0.41406-0.3584,0.33398-0.62305C36.07276,8.24658,33.71046,5.36182,30.48097,3.63037z"/><text x="0" y="63" fill="#000000" font-size="5px" font-weight="bold" font-family="'Helvetica Neue', Helvetica, Arial-Unicode, Arial, Sans-serif">Created by Kieu Thi Kim Cuong</text><text x="0" y="68" fill="#000000" font-size="5px" font-weight="bold" font-family="'Helvetica Neue', Helvetica, Arial-Unicode, Arial, Sans-serif">from the Noun Project</text></svg>