<svg xmlns="http://www.w3.org/2000/svg" version="1.1" viewBox="-5.0 -10.0 110.0 135.0">
 <g>
  <path d="m60.207 55.293c0.050781-0.23047 0.23828-0.39453 0.48047-0.41797l3.8438-0.21875v-3.3008l-3.8438-0.21875c-0.23828-0.011719-0.42578-0.1875-0.48047-0.41797-0.28125-1.3008-0.79297-2.5508-1.5312-3.6875-0.13672-0.19922-0.11328-0.45703 0.042969-0.63672l2.5742-2.875-2.3438-2.332-2.875 2.5625c-0.17578 0.15625-0.4375 0.17578-0.63672 0.050781-1.1367-0.73828-2.375-1.2617-3.6875-1.5312-0.23047-0.050781-0.39453-0.25-0.40625-0.48047l-0.21875-3.8555-3.3125 0.003906-0.21875 3.8555c-0.011719 0.23047-0.17578 0.42578-0.40625 0.48047-1.3125 0.26953-2.5508 0.79297-3.6992 1.5312-0.19922 0.125-0.44922 0.10547-0.625-0.050782l-2.8867-2.5625-2.332 2.332 2.5742 2.875c0.15625 0.17578 0.16797 0.4375 0.042969 0.63672-0.73828 1.1367-1.25 2.3867-1.5312 3.6875-0.050781 0.23047-0.25 0.40625-0.48047 0.41797l-3.8438 0.21875v3.3008l3.8438 0.21875c0.23047 0.019532 0.42578 0.1875 0.48047 0.41797 0.28125 1.3125 0.79297 2.5508 1.5312 3.6875 0.125 0.19922 0.11328 0.45703-0.042969 0.63672l-2.5742 2.875 2.332 2.332 2.8867-2.5625c0.17578-0.15625 0.42578-0.17578 0.625-0.050781 1.1445 0.73828 2.3867 1.2617 3.6992 1.543 0.23047 0.042969 0.39453 0.23828 0.40625 0.48047l0.21875 3.8438h3.3125l0.21875-3.8438c0.011719-0.23828 0.17578-0.4375 0.40625-0.48047 1.3125-0.28125 2.5508-0.80078 3.6875-1.543 0.19922-0.125 0.45703-0.10547 0.63672 0.050781l2.875 2.5625 2.3438-2.332-2.5742-2.875c-0.15625-0.17578-0.17578-0.4375-0.042969-0.63672 0.74219-1.1406 1.25-2.3789 1.5312-3.6914zm-10.738 4.5078c-3.75 0-6.793-3.0508-6.793-6.793 0-3.75 3.043-6.8008 6.793-6.8008s6.793 3.0508 6.793 6.8008c0 3.7422-3.043 6.793-6.793 6.793z"/>
  <path d="m55.219 53.012c0 3.168-2.582 5.75-5.75 5.75-3.1758 0-5.75-2.582-5.75-5.75 0-3.1758 2.5742-5.7617 5.75-5.7617 3.168 0 5.75 2.582 5.75 5.7617z"/>
  <path d="m32.156 74.449v5.3945h-2.707v1.043h3.1562c0.019531 0.011719 0.042969 0.011719 0.074219 0.011719s0.0625 0 0.09375-0.011719c0.25-0.050781 0.42578-0.26172 0.42578-0.51172v-5.9258zm9.543 0v10.145h-2.8945v1.043h3.418c0.29297 0 0.51953-0.23047 0.51953-0.51953v-10.668zm7.7812 0v12.562h1.043v-12.562zm8.8203 10.148v-10.145h-1.043v10.668c0 0.29297 0.23047 0.51953 0.51953 0.51953h3.4805v-1.043zm9.543-4.75v-5.3945h-1.043v5.9258c0 0.25 0.1875 0.45703 0.42578 0.51172 0.03125 0 0.0625 0.011719 0.09375 0.011719 0.019532 0 0.042969 0 0.050782-0.011719h3.125v-1.043z"/>
  <path d="m75.238 80.367c0 1.0195-0.82422 1.8555-1.8438 1.8555s-1.8555-0.83203-1.8555-1.8555c0-1.0117 0.83203-1.8438 1.8555-1.8438 1.0234 0 1.8438 0.83203 1.8438 1.8438z"/>
  <path d="m28.457 80.367c0 1.0195-0.83203 1.8555-1.8555 1.8555-1.0195 0-1.8438-0.83203-1.8438-1.8555 0-1.0117 0.82422-1.8438 1.8438-1.8438 1.0234 0 1.8555 0.83203 1.8555 1.8438z"/>
  <path d="m37.75 85.117c0 1.0195-0.83203 1.8438-1.8438 1.8438-1.0195 0-1.8555-0.82422-1.8555-1.8438 0-1.0195 0.83203-1.8555 1.8555-1.8555 1.0195 0 1.8438 0.83594 1.8438 1.8555z"/>
  <path d="m51.844 89.855c0 1.0195-0.82422 1.8555-1.8438 1.8555s-1.8555-0.83203-1.8555-1.8555c0-1.0195 0.83203-1.8555 1.8555-1.8555 1.0195 0.003906 1.8438 0.83594 1.8438 1.8555z"/>
  <path d="m65.949 85.117c0 1.0195-0.83203 1.8438-1.8555 1.8438-1.0117 0-1.8438-0.82422-1.8438-1.8438 0-1.0195 0.82422-1.8555 1.8438-1.8555s1.8555 0.83594 1.8555 1.8555z"/>
  <path d="m32.793 19.469c-0.050781-0.011719-0.11328-0.011719-0.16797-0.011719h-3.1758v1.043h2.707v8.5508l1.043-0.5625v-8.5117c0-0.23828-0.16797-0.44531-0.40625-0.50781zm9.4258-4.75h-3.4805v1.043h2.957v10.262l1.043-0.074219v-10.711c0-0.28906-0.22656-0.51953-0.51953-0.51953zm7.2617-1.3867v13.094c0 0.042969 0.011719 0.082031 0.019531 0.11328l0.88672 0.23828c0.082031-0.09375 0.13672-0.21875 0.13672-0.35547l-0.003907-13.09zm8.3008 1.3867c-0.29297 0-0.51953 0.23047-0.51953 0.51953v14.645l1.043 0.73047-0.003907-14.852h2.957v-1.043zm9.6133 4.7383c-0.0625-0.011719-0.125 0-0.1875 0.011719-0.23828 0.0625-0.40625 0.26953-0.40625 0.51172v12.793l1.043-0.33203v-11.941h2.707v-1.043z"/>
  <path d="m28.457 19.98c0 1.0195-0.83203 1.8555-1.8555 1.8555-1.0195 0-1.8438-0.83203-1.8438-1.8555 0-1.0195 0.82422-1.8438 1.8438-1.8438 1.0234 0 1.8555 0.82031 1.8555 1.8438z"/>
  <path d="m37.75 15.238c0 1.0195-0.82422 1.8555-1.8438 1.8555s-1.8555-0.83203-1.8555-1.8555c0-1.0195 0.83203-1.8438 1.8555-1.8438 1.0117 0 1.8438 0.82422 1.8438 1.8438z"/>
  <path d="m51.855 10.5c0 1.0195-0.83203 1.8438-1.8555 1.8438-1.0195 0-1.8438-0.82422-1.8438-1.8438s0.82422-1.8555 1.8438-1.8555 1.8555 0.83594 1.8555 1.8555z"/>
  <path d="m65.949 15.238c0 1.0195-0.83203 1.8555-1.8555 1.8555-1.0195 0-1.8438-0.83203-1.8438-1.8555 0-1.0195 0.83203-1.8438 1.8438-1.8438 1.0195 0 1.8555 0.82422 1.8555 1.8438z"/>
  <path d="m75.238 19.98c0 1.0195-0.82422 1.8555-1.8438 1.8555s-1.8555-0.83203-1.8555-1.8555c0-1.0195 0.83203-1.8438 1.8555-1.8438 1.0234 0 1.8438 0.82031 1.8438 1.8438z"/>
  <path d="m77.707 49.5c-0.20703 0-0.38672-0.125-0.46875-0.3125-0.074219-0.1875-0.042969-0.40625 0.09375-0.55078 1.5742-1.7188 2.4375-3.9375 2.4375-6.25 0-5.1133-4.1562-9.2695-9.2695-9.2695-2.7188 0-5.3008 1.1992-7.0742 3.2812-0.09375 0.125-0.25 0.1875-0.40625 0.1875-0.16797-0.011719-0.3125-0.082032-0.40625-0.21875-4.332-5.8945-11.281-9.418-18.582-9.418-12.707 0-23.051 10.344-23.051 23.051 0 1.6562 0.1875 3.332 0.54297 4.9688 0.03125 0.15625 0 0.3125-0.10547 0.4375-0.09375 0.125-0.25 0.1875-0.40625 0.1875h-1.457c-4.8125 0-8.7305 3.918-8.7305 8.7305s3.918 8.7305 8.7305 8.7305h12.918c0.0625-0.03125 0.13672-0.042969 0.20703-0.042969 0.0625 0 0.13672 0.011719 0.19922 0.042969h34.25c0.0625-0.03125 0.13672-0.042969 0.19922-0.042969 0.074219 0 0.14453 0.011719 0.20703 0.042969h9.8633c6.4883 0 11.781-5.293 11.781-11.781-0.003907-6.4297-5.043-11.598-11.473-11.773zm-12.133 5.6445c0 0.28125-0.21875 0.51172-0.48828 0.51953l-3.9492 0.23047c-0.29297 1.168-0.75 2.2695-1.375 3.3125l2.6367 2.957c0.17578 0.19922 0.16797 0.51172-0.019532 0.70703l-3.0312 3.0312c-0.19922 0.19922-0.51172 0.20703-0.71875 0.019531l-2.957-2.6367c-1.0312 0.63672-2.1445 1.0938-3.3125 1.3867l-0.21875 3.9492c-0.019531 0.26953-0.25 0.48828-0.51953 0.48828h-4.293c-0.26953 0-0.5-0.21875-0.51953-0.48828l-0.23047-3.9492c-1.1562-0.29297-2.2695-0.75-3.3125-1.3867l-2.9492 2.6367c-0.20703 0.1875-0.51953 0.17578-0.71875-0.019531l-3.0312-3.0312c-0.19922-0.19922-0.20703-0.51172-0.019531-0.70703l2.6367-2.957c-0.625-1.043-1.0938-2.1445-1.375-3.3125l-3.9492-0.23047c-0.28125-0.011718-0.48828-0.23828-0.48828-0.51953v-4.2812c0-0.28125 0.20703-0.51172 0.48828-0.51953l3.9492-0.23047c0.28125-1.168 0.75-2.2695 1.375-3.3125l-2.6367-2.957c-0.1875-0.19922-0.17578-0.51172 0.019531-0.70703l3.0312-3.0312c0.19922-0.19922 0.51172-0.20703 0.71875-0.019531l2.9492 2.6367c1.043-0.63672 2.1562-1.0938 3.3125-1.3867l0.23047-3.9375c0.019531-0.28125 0.25-0.5 0.51953-0.5h4.293c0.26953 0 0.5 0.21875 0.51953 0.5l0.21875 3.9375c1.168 0.29297 2.2812 0.75 3.3125 1.3867l2.957-2.6367c0.20703-0.1875 0.51953-0.17578 0.71875 0.019531l3.0312 3.0312c0.1875 0.19922 0.19922 0.51172 0.019532 0.70703l-2.6367 2.957c0.625 1.043 1.082 2.1445 1.375 3.3125l3.9492 0.23047c0.26953 0.011719 0.48828 0.23828 0.48828 0.51953z"/>
 </g>
<text x="0.0" y="117.5" font-size="5.0" font-weight="bold" font-family="Arbeit Regular, Helvetica, Arial-Unicode, Arial, Sans-serif" fill="#000000">Created by Trotoart</text><text x="0.0" y="122.5" font-size="5.0" font-weight="bold" font-family="Arbeit Regular, Helvetica, Arial-Unicode, Arial, Sans-serif" fill="#000000">from Noun Project</text></svg>